<?xml version="1.0" encoding="utf-8"?>
<!-- Generator: Adobe Illustrator 24.1.2, SVG Export Plug-In . SVG Version: 6.00 Build 0)  -->
<svg version="1.1" id="Layer_1" xmlns="http://www.w3.org/2000/svg" xmlns:xlink="http://www.w3.org/1999/xlink" x="0px" y="0px"
	 viewBox="0 0 100 100" style="enable-background:new 0 0 100 100;" xml:space="preserve">
<style type="text/css">
	.st0{fill:#FFFFFF;}
	.st1{fill:none;stroke:#FFFFFF;stroke-width:0.75;stroke-miterlimit:10;}
	.st2{fill:none;stroke:#FFFFFF;stroke-linecap:round;stroke-miterlimit:10;}
</style>
<g>
	<circle class="st0" cx="69.17" cy="64.84" r="11.2"/>
	<circle class="st1" cx="69.17" cy="64.84" r="18.94"/>
	<circle class="st1" cx="69.17" cy="64.84" r="25.22"/>
	<line class="st2" x1="27.81" y1="31.39" x2="69.17" y2="64.84"/>
	<g>
		<path class="st0" d="M25.13,19.02c1.03,2.33,2.04,4.67,3.02,7.02c0.5,1.17,1.05,2.32,1.44,3.54c0.38,1.22,0.73,2.44,0.92,3.73
			c0,0.03-0.02,0.05-0.04,0.06c-0.02,0-0.04-0.01-0.05-0.02c-0.7-1.1-1.25-2.25-1.77-3.42c-0.51-1.17-0.85-2.4-1.25-3.61
			c-0.81-2.41-1.6-4.84-2.36-7.27c-0.01-0.03,0.01-0.05,0.03-0.06C25.09,18.98,25.12,19,25.13,19.02z"/>
	</g>
	<g>
		<path class="st0" d="M27.32,14.52C28.91,18.34,30.47,22.17,32,26c0.78,1.92,1.6,3.81,2.27,5.77c0.66,1.96,1.28,3.93,1.75,5.96
			c0.01,0.03-0.01,0.05-0.04,0.06c-0.02,0.01-0.05-0.01-0.06-0.03c-0.98-1.84-1.81-3.73-2.6-5.64c-0.79-1.91-1.41-3.88-2.08-5.84
			c-1.37-3.9-2.71-7.81-4.02-11.73c-0.01-0.03,0.01-0.05,0.03-0.06C27.29,14.49,27.31,14.5,27.32,14.52z"/>
	</g>
	<g>
		<path class="st0" d="M35.33,37.78c-2.19,0.27-4.38,0.33-6.56,0.41c-2.19,0.05-4.37-0.07-6.56-0.14
			c-4.37-0.11-8.74-0.26-13.12-0.43c-0.03,0-0.05-0.02-0.05-0.05c0-0.03,0.02-0.05,0.05-0.05c4.37-0.12,8.75-0.21,13.12-0.27
			c2.19-0.04,4.37-0.14,6.56-0.06c2.19,0.1,4.37,0.19,6.56,0.49c0.03,0,0.05,0.03,0.04,0.06C35.37,37.76,35.36,37.78,35.33,37.78z"
			/>
	</g>
	<g>
		<path class="st0" d="M12.06,33c3.02-0.1,6.04-0.16,9.06-0.2c1.51-0.03,3.02-0.12,4.53-0.03c1.51,0.09,3.02,0.23,4.52,0.52
			c0.03,0.01,0.05,0.03,0.04,0.06c0,0.02-0.02,0.04-0.04,0.04c-1.51,0.25-3.02,0.33-4.54,0.38c-1.51,0.04-3.02-0.09-4.53-0.17
			c-3.02-0.14-6.03-0.3-9.05-0.5c-0.03,0-0.05-0.03-0.05-0.05C12.02,33.02,12.04,33,12.06,33z"/>
	</g>
	<g>
		<path class="st0" d="M42.13,42.82c-2.97,0.19-5.93,0.16-8.89,0.15c-2.96-0.04-5.92-0.25-8.88-0.4
			c-5.92-0.29-11.83-0.61-17.75-0.96c-0.03,0-0.05-0.03-0.05-0.05c0-0.03,0.02-0.05,0.05-0.05c5.92,0.06,11.85,0.14,17.77,0.26
			c2.96,0.05,5.92,0.04,8.88,0.2c2.96,0.19,5.91,0.37,8.86,0.75c0.03,0,0.05,0.03,0.04,0.06C42.17,42.8,42.15,42.82,42.13,42.82z"/>
	</g>
	<g>
		<path class="st0" d="M29.81,11.4c2.19,5.19,4.35,10.4,6.49,15.61c1.08,2.6,2.21,5.19,3.17,7.83c0.94,2.66,1.9,5.31,2.66,8.03
			c0.01,0.03-0.01,0.05-0.03,0.06c-0.02,0.01-0.05,0-0.06-0.03c-1.29-2.52-2.39-5.12-3.5-7.71c-1.09-2.6-2.01-5.26-2.99-7.91
			c-1.97-5.28-3.91-10.57-5.83-15.87c-0.01-0.03,0-0.05,0.03-0.06C29.78,11.36,29.8,11.38,29.81,11.4z"/>
	</g>
</g>
</svg>
