<?xml version="1.0" encoding="utf-8"?>
<!-- Generator: Adobe Illustrator 24.1.2, SVG Export Plug-In . SVG Version: 6.00 Build 0)  -->
<svg version="1.1" id="Layer_1" xmlns="http://www.w3.org/2000/svg" xmlns:xlink="http://www.w3.org/1999/xlink" x="0px" y="0px"
	 viewBox="0 0 50 50" style="enable-background:new 0 0 50 50;" xml:space="preserve">
<style type="text/css">
	.st0{fill:#FFFFFF;}
	.st1{fill:none;stroke:#FFFFFF;stroke-width:1.008;stroke-miterlimit:10;}
	.st2{fill:none;stroke:#FFFFFF;stroke-width:1.344;stroke-linecap:round;stroke-miterlimit:10;}
</style>
<g>
	<ellipse class="st0" cx="35.3" cy="31.5" rx="6.3" ry="6.2"/>
	<ellipse class="st1" cx="35.3" cy="31.5" rx="10.7" ry="10.5"/>
	<ellipse class="st1" cx="35.3" cy="31.5" rx="14.2" ry="14"/>
	<line class="st2" x1="12" y1="12.9" x2="35.3" y2="31.5"/>
	<g>
		<path class="st0" d="M10.5,6c0.7,1.3,1.3,2.5,2,3.8c0.3,0.6,0.7,1.2,0.9,1.9c0.2,0.7,0.3,1.4,0.2,2.2c0,0,0,0.1-0.1,0.1
			c0,0,0,0,0,0c-0.6-0.5-1-1.1-1.3-1.8c-0.4-0.6-0.4-1.3-0.6-2c-0.4-1.4-0.7-2.8-1.1-4.1C10.4,6,10.4,6,10.5,6C10.5,6,10.5,6,10.5,6
			z"/>
	</g>
	<g>
		<path class="st0" d="M11.8,3.5c1,2.1,2,4.2,2.9,6.3c0.5,1.1,1,2.1,1.4,3.2c0.3,1.1,0.6,2.2,0.6,3.4c0,0,0,0.1-0.1,0.1
			c0,0,0,0-0.1,0c-0.8-0.9-1.3-2-1.8-3c-0.5-1-0.7-2.2-1.1-3.3c-0.7-2.2-1.4-4.4-2-6.6C11.6,3.5,11.7,3.5,11.8,3.5
			C11.7,3.5,11.8,3.5,11.8,3.5z"/>
	</g>
	<g>
		<path class="st0" d="M16.2,16.5c-1.2,0.4-2.5,0.5-3.7,0.6c-1.2,0.1-2.5-0.1-3.7-0.2c-2.5-0.1-4.9-0.3-7.4-0.5c0,0-0.1,0-0.1-0.1
			s0-0.1,0.1-0.1c2.5-0.2,4.9-0.3,7.4-0.4c1.2-0.1,2.5-0.2,3.7-0.1c1.2,0.1,2.5,0.3,3.7,0.6C16.3,16.4,16.3,16.4,16.2,16.5
			C16.3,16.5,16.3,16.5,16.2,16.5z"/>
	</g>
	<g>
		<path class="st0" d="M3.1,13.8c1.7-0.2,3.4-0.3,5.1-0.4c0.9,0,1.7-0.2,2.6-0.1c0.9,0.1,1.7,0.3,2.5,0.6c0,0,0.1,0.1,0,0.1
			c0,0,0,0,0,0c-0.9,0.4-1.7,0.5-2.6,0.6c-0.9,0.1-1.7-0.1-2.5-0.2c-1.7-0.1-3.4-0.3-5.1-0.5C3.1,13.9,3.1,13.8,3.1,13.8
			C3.1,13.8,3.1,13.8,3.1,13.8z"/>
	</g>
	<g>
		<path class="st0" d="M20.1,19.3c-1.7,0.3-3.4,0.4-5,0.4c-1.7,0-3.3-0.2-5-0.3c-3.3-0.2-6.7-0.5-10-0.8c0,0-0.1,0-0.1-0.1
			c0,0,0-0.1,0.1-0.1c3.3-0.1,6.7-0.1,10-0.1c1.7,0,3.3-0.1,5,0c1.7,0.1,3.3,0.3,5,0.8C20.1,19.2,20.1,19.2,20.1,19.3
			C20.1,19.3,20.1,19.3,20.1,19.3z"/>
	</g>
	<g>
		<path class="st0" d="M13.2,1.8c1.3,2.8,2.6,5.7,3.9,8.6c0.6,1.4,1.4,2.8,1.9,4.3c0.5,1.5,0.9,3,1.2,4.6c0,0,0,0.1-0.1,0.1
			c0,0-0.1,0-0.1,0c-0.9-1.3-1.6-2.7-2.3-4.2c-0.7-1.4-1.1-2.9-1.6-4.4c-1-3-2.1-5.9-3-8.9C13,1.8,13.1,1.8,13.2,1.8
			C13.1,1.7,13.2,1.7,13.2,1.8z"/>
	</g>
</g>
</svg>
