<?xml version="1.0" encoding="utf-8"?>
<!-- Generator: Adobe Illustrator 24.1.2, SVG Export Plug-In . SVG Version: 6.00 Build 0)  -->
<svg version="1.1" id="Layer_1" xmlns="http://www.w3.org/2000/svg" xmlns:xlink="http://www.w3.org/1999/xlink" x="0px" y="0px"
	 viewBox="0 0 50 50" style="enable-background:new 0 0 50 50;" xml:space="preserve">
<style type="text/css">
	.st0{fill:#FFFFFF;}
	.st1{fill:none;stroke:#FFFFFF;stroke-width:0.75;stroke-miterlimit:10;}
	.st2{fill:none;stroke:#FFFFFF;stroke-linecap:round;stroke-miterlimit:10;}
</style>
<g>
	<circle class="st0" cx="33.22" cy="29.83" r="4.66"/>
	<circle class="st1" cx="33.22" cy="29.83" r="7.89"/>
	<circle class="st1" cx="33.22" cy="29.83" r="10.5"/>
	<line class="st2" x1="16" y1="15.91" x2="33.22" y2="29.83"/>
	<g>
		<path class="st0" d="M14.91,10.75c0.51,0.94,0.99,1.89,1.45,2.85c0.23,0.48,0.54,0.93,0.65,1.45c0.12,0.52,0.21,1.05,0.14,1.65
			c0,0.03-0.03,0.05-0.06,0.05c-0.01,0-0.02-0.01-0.03-0.01c-0.44-0.4-0.73-0.86-0.98-1.33c-0.26-0.47-0.32-1.01-0.47-1.52
			c-0.29-1.02-0.55-2.06-0.79-3.1c-0.01-0.03,0.01-0.05,0.04-0.06C14.88,10.72,14.9,10.73,14.91,10.75z"/>
	</g>
	<g>
		<path class="st0" d="M15.83,8.88c0.74,1.56,1.45,3.13,2.14,4.71c0.34,0.79,0.77,1.55,1,2.38c0.24,0.83,0.44,1.67,0.48,2.57
			c0,0.03-0.02,0.05-0.05,0.05c-0.02,0-0.03-0.01-0.04-0.02c-0.56-0.71-0.96-1.48-1.33-2.26c-0.37-0.78-0.55-1.63-0.81-2.45
			c-0.52-1.64-1.01-3.29-1.48-4.95c-0.01-0.03,0.01-0.05,0.03-0.06C15.79,8.84,15.82,8.85,15.83,8.88z"/>
	</g>
	<g>
		<path class="st0" d="M19.14,18.6c-0.91,0.27-1.82,0.37-2.73,0.43c-0.91,0.07-1.82-0.07-2.73-0.12c-1.82-0.1-3.64-0.23-5.46-0.38
			c-0.03,0-0.05-0.03-0.05-0.05c0-0.02,0.02-0.04,0.05-0.05c1.82-0.13,3.64-0.24,5.46-0.32c0.91-0.04,1.82-0.16,2.73-0.08
			c0.91,0.07,1.82,0.19,2.73,0.47c0.03,0.01,0.04,0.04,0.03,0.07C19.17,18.58,19.15,18.59,19.14,18.6z"/>
	</g>
	<g>
		<path class="st0" d="M9.45,16.55c1.26-0.12,2.52-0.22,3.78-0.29c0.63-0.03,1.26-0.15,1.89-0.07c0.63,0.08,1.25,0.19,1.88,0.48
			c0.03,0.01,0.04,0.04,0.03,0.07c-0.01,0.01-0.02,0.02-0.03,0.03c-0.63,0.27-1.26,0.36-1.89,0.42c-0.63,0.06-1.26-0.08-1.88-0.13
			c-1.26-0.11-2.51-0.25-3.76-0.41c-0.03,0-0.05-0.03-0.04-0.06C9.41,16.57,9.43,16.55,9.45,16.55z"/>
	</g>
	<g>
		<path class="st0" d="M21.96,20.7c-1.24,0.23-2.48,0.3-3.71,0.32c-1.23,0.03-2.46-0.14-3.69-0.23c-2.46-0.17-4.92-0.37-7.38-0.6
			c-0.03,0-0.05-0.03-0.05-0.05c0-0.03,0.02-0.04,0.05-0.05c2.47-0.06,4.94-0.09,7.4-0.1c1.23,0,2.47-0.09,3.7,0.03
			c1.23,0.11,2.46,0.26,3.68,0.58C22,20.6,22.01,20.63,22,20.66C22,20.68,21.98,20.69,21.96,20.7z"/>
	</g>
	<g>
		<path class="st0" d="M16.87,7.57c0.99,2.13,1.95,4.27,2.89,6.43c0.47,1.08,1.02,2.12,1.38,3.24c0.36,1.12,0.69,2.25,0.86,3.44
			c0,0.03-0.02,0.05-0.04,0.06c-0.02,0-0.04-0.01-0.05-0.02c-0.68-0.99-1.21-2.04-1.7-3.11c-0.5-1.07-0.8-2.2-1.19-3.31
			c-0.77-2.22-1.52-4.44-2.24-6.68c-0.01-0.03,0.01-0.05,0.03-0.06C16.83,7.54,16.86,7.55,16.87,7.57z"/>
	</g>
</g>
</svg>
