<?xml version="1.0" encoding="utf-8"?>
<!-- Generator: Adobe Illustrator 24.1.2, SVG Export Plug-In . SVG Version: 6.00 Build 0)  -->
<svg version="1.1" id="Layer_1" xmlns="http://www.w3.org/2000/svg" xmlns:xlink="http://www.w3.org/1999/xlink" x="0px" y="0px"
	 viewBox="0 0 200 50" style="enable-background:new 0 0 200 50;" xml:space="preserve">
<style type="text/css">
	.st0{fill:#FFFFFF;}
</style>
<g>
	<g>
		<g>
			<path class="st0" d="M40.14,9.04v33.78H37.7V26.65H16.31v16.18h-2.44V9.04h2.44v15.42H37.7V9.04H40.14z"/>
		</g>
		<g>
			<path class="st0" d="M24.03,25.65c0-2.03,0.36-4.04,1.08-6.02c0.72-1.98,1.76-3.79,3.13-5.42c1.37-1.63,3.05-2.94,5.04-3.93
				c1.99-0.98,4.26-1.47,6.8-1.47c3.02,0,5.6,0.69,7.74,2.07c2.13,1.38,3.72,3.15,4.77,5.3l-2,1.14c-0.8-1.55-1.78-2.79-2.94-3.71
				s-2.41-1.58-3.75-1.97s-2.67-0.59-4.01-0.59c-2.13,0-4.04,0.43-5.71,1.28c-1.67,0.86-3.08,2-4.23,3.43
				c-1.15,1.43-2.01,3.01-2.6,4.76c-0.59,1.74-0.88,3.5-0.88,5.28c0,2,0.35,3.89,1.05,5.69c0.7,1.79,1.66,3.39,2.89,4.78
				s2.66,2.51,4.3,3.33c1.64,0.83,3.41,1.24,5.32,1.24c1.37,0,2.76-0.23,4.18-0.69c1.42-0.46,2.75-1.17,3.99-2.14
				c1.24-0.97,2.24-2.23,3.01-3.78l2.1,1c-0.73,1.68-1.83,3.11-3.29,4.28c-1.46,1.17-3.09,2.06-4.87,2.66s-3.55,0.9-5.3,0.9
				c-2.29,0-4.41-0.5-6.35-1.5c-1.94-1-3.62-2.33-5.04-4c-1.42-1.67-2.51-3.54-3.27-5.61S24.03,27.77,24.03,25.65z"/>
		</g>
	</g>
	<g>
		<path class="st0" d="M67.93,19.78v10.7h-1.04v-5h-6.35v5h-1.05v-10.7h1.05v4.76h6.35v-4.76H67.93z"/>
		<path class="st0" d="M69.77,28.24c0-0.49,0.14-0.91,0.42-1.27c0.28-0.35,0.67-0.63,1.17-0.82c0.5-0.19,1.07-0.29,1.73-0.29
			c0.38,0,0.78,0.03,1.19,0.09c0.41,0.06,0.78,0.15,1.1,0.27v-0.66c0-0.66-0.2-1.18-0.59-1.57c-0.39-0.39-0.93-0.58-1.63-0.58
			c-0.42,0-0.84,0.08-1.24,0.23c-0.41,0.16-0.83,0.38-1.27,0.69l-0.39-0.72c0.51-0.35,1.01-0.62,1.51-0.79
			c0.49-0.18,0.99-0.26,1.51-0.26c0.96,0,1.73,0.28,2.29,0.82c0.56,0.55,0.84,1.31,0.84,2.28v3.61c0,0.14,0.03,0.24,0.09,0.31
			c0.06,0.06,0.16,0.1,0.29,0.11v0.81c-0.11,0.01-0.21,0.02-0.29,0.03c-0.08,0.01-0.14,0.01-0.18,0c-0.25-0.01-0.44-0.09-0.57-0.24
			s-0.2-0.31-0.21-0.48l-0.01-0.57c-0.35,0.45-0.81,0.8-1.37,1.05s-1.14,0.37-1.72,0.37c-0.5,0-0.96-0.11-1.36-0.32
			c-0.41-0.21-0.72-0.5-0.95-0.87C69.88,29.08,69.77,28.68,69.77,28.24z M75.03,28.83c0.11-0.14,0.2-0.27,0.26-0.4
			c0.06-0.13,0.09-0.24,0.09-0.34v-1.13c-0.34-0.13-0.7-0.23-1.06-0.3c-0.37-0.07-0.74-0.1-1.11-0.1c-0.73,0-1.33,0.14-1.78,0.43
			c-0.45,0.29-0.68,0.68-0.68,1.18c0,0.29,0.08,0.56,0.23,0.81s0.37,0.46,0.66,0.63c0.29,0.16,0.63,0.25,1.03,0.25
			c0.49,0,0.95-0.09,1.38-0.28C74.47,29.38,74.8,29.13,75.03,28.83z"/>
		<path class="st0" d="M81.27,30.63c-0.64,0-1.24-0.11-1.79-0.32s-1.03-0.53-1.43-0.96l0.42-0.72c0.44,0.41,0.89,0.71,1.33,0.9
			s0.92,0.28,1.42,0.28c0.61,0,1.11-0.12,1.49-0.37s0.57-0.6,0.57-1.05c0-0.31-0.09-0.55-0.28-0.71c-0.19-0.17-0.45-0.3-0.8-0.4
			c-0.35-0.11-0.76-0.22-1.24-0.34c-0.54-0.15-1-0.31-1.36-0.47c-0.37-0.17-0.64-0.38-0.83-0.63c-0.19-0.25-0.28-0.59-0.28-1
			c0-0.51,0.13-0.93,0.38-1.27c0.26-0.33,0.61-0.59,1.06-0.76s0.95-0.26,1.5-0.26c0.6,0,1.14,0.1,1.6,0.29
			c0.46,0.19,0.84,0.46,1.13,0.8l-0.5,0.69c-0.28-0.32-0.62-0.56-1-0.72c-0.39-0.16-0.82-0.23-1.29-0.23
			c-0.32,0-0.63,0.04-0.92,0.13c-0.29,0.08-0.53,0.22-0.72,0.42c-0.19,0.2-0.28,0.46-0.28,0.8c0,0.28,0.07,0.5,0.21,0.65
			s0.35,0.28,0.63,0.39c0.28,0.1,0.63,0.22,1.04,0.34c0.59,0.16,1.11,0.32,1.55,0.49c0.44,0.16,0.78,0.38,1.02,0.64
			c0.24,0.26,0.36,0.62,0.36,1.09c0,0.73-0.28,1.3-0.83,1.71C82.9,30.43,82.17,30.63,81.27,30.63z"/>
		<path class="st0" d="M91.65,30.48l-2.91-4.02l-1.67,1.56v2.45h-1.02v-11h1.02v7.45l4.45-4.27h1.13l-3.21,3.2l3.33,4.62H91.65z"/>
		<path class="st0" d="M97.09,30.63c-0.56,0-1.08-0.11-1.57-0.32c-0.48-0.22-0.9-0.51-1.25-0.89c-0.35-0.38-0.63-0.81-0.82-1.3
			c-0.2-0.49-0.29-1.02-0.29-1.58c0-0.73,0.17-1.4,0.5-2.01s0.8-1.09,1.39-1.46c0.59-0.36,1.27-0.55,2.02-0.55
			c0.77,0,1.45,0.19,2.03,0.55c0.58,0.37,1.03,0.86,1.36,1.46c0.33,0.6,0.5,1.27,0.5,1.98c0,0.08,0,0.16,0,0.23
			c0,0.07-0.01,0.13-0.02,0.17h-6.72c0.05,0.56,0.21,1.06,0.47,1.49c0.27,0.43,0.61,0.78,1.04,1.03c0.43,0.25,0.89,0.38,1.39,0.38
			c0.51,0,1-0.13,1.46-0.39c0.46-0.26,0.78-0.6,0.96-1.03l0.89,0.24c-0.16,0.37-0.41,0.71-0.74,1.01c-0.33,0.3-0.72,0.54-1.17,0.7
			C98.09,30.55,97.61,30.63,97.09,30.63z M94.2,26.2h5.8c-0.04-0.57-0.19-1.06-0.46-1.49s-0.61-0.76-1.04-1.01
			c-0.43-0.24-0.9-0.37-1.41-0.37s-0.98,0.12-1.4,0.37c-0.42,0.24-0.77,0.58-1.03,1.01C94.39,25.15,94.24,25.65,94.2,26.2z"/>
		<path class="st0" d="M102.67,19.48h1.02v9.28c0,0.39,0.07,0.65,0.21,0.77s0.31,0.18,0.51,0.18c0.18,0,0.36-0.02,0.54-0.06
			s0.34-0.08,0.47-0.12l0.18,0.83c-0.19,0.08-0.42,0.15-0.7,0.2c-0.28,0.05-0.52,0.08-0.72,0.08c-0.46,0-0.83-0.14-1.11-0.41
			s-0.41-0.65-0.41-1.12V19.48z"/>
		<path class="st0" d="M106.85,19.48h1.02v9.28c0,0.39,0.07,0.65,0.21,0.77s0.31,0.18,0.51,0.18c0.18,0,0.36-0.02,0.54-0.06
			s0.34-0.08,0.47-0.12l0.18,0.83c-0.19,0.08-0.42,0.15-0.7,0.2c-0.28,0.05-0.52,0.08-0.72,0.08c-0.46,0-0.83-0.14-1.11-0.41
			s-0.41-0.65-0.41-1.12V19.48z"/>
		<path class="st0" d="M113.94,25.04c0-0.65,0.11-1.29,0.34-1.92c0.23-0.63,0.56-1.2,0.99-1.72c0.43-0.52,0.96-0.93,1.6-1.24
			c0.63-0.31,1.35-0.46,2.16-0.46c0.96,0,1.77,0.22,2.45,0.66c0.68,0.44,1.18,1,1.5,1.68l-0.83,0.51c-0.23-0.47-0.52-0.85-0.87-1.12
			s-0.73-0.47-1.12-0.6c-0.4-0.12-0.79-0.18-1.18-0.18c-0.64,0-1.21,0.13-1.7,0.38c-0.49,0.26-0.91,0.6-1.24,1.02
			c-0.34,0.43-0.59,0.9-0.76,1.43c-0.17,0.53-0.26,1.06-0.26,1.61c0,0.59,0.1,1.16,0.3,1.7c0.2,0.54,0.48,1.02,0.84,1.44
			c0.36,0.42,0.79,0.75,1.27,1c0.49,0.25,1.02,0.37,1.59,0.37c0.4,0,0.81-0.07,1.24-0.21c0.42-0.14,0.82-0.36,1.18-0.65
			c0.37-0.29,0.66-0.67,0.88-1.13l0.87,0.45c-0.22,0.53-0.56,0.98-1.02,1.36c-0.46,0.37-0.98,0.65-1.54,0.84
			c-0.57,0.19-1.12,0.29-1.67,0.29c-0.73,0-1.41-0.16-2.02-0.47s-1.14-0.74-1.59-1.27c-0.45-0.53-0.79-1.12-1.03-1.78
			C114.07,26.38,113.94,25.72,113.94,25.04z"/>
		<path class="st0" d="M128.2,30.63c-0.56,0-1.08-0.11-1.56-0.32c-0.48-0.21-0.89-0.51-1.24-0.88s-0.62-0.8-0.81-1.29
			s-0.29-1-0.29-1.54c0-0.56,0.1-1.08,0.29-1.57s0.46-0.91,0.81-1.29c0.35-0.38,0.77-0.67,1.24-0.88c0.48-0.21,1-0.32,1.56-0.32
			s1.08,0.11,1.55,0.32c0.47,0.21,0.88,0.51,1.24,0.88c0.35,0.38,0.62,0.8,0.81,1.29c0.19,0.48,0.29,1.01,0.29,1.57
			c0,0.54-0.1,1.05-0.29,1.54c-0.19,0.48-0.46,0.91-0.81,1.29s-0.76,0.67-1.24,0.88C129.3,30.53,128.78,30.63,128.2,30.63z
			 M125.35,26.62c0,0.58,0.13,1.11,0.38,1.58c0.26,0.47,0.6,0.85,1.03,1.12c0.43,0.27,0.91,0.41,1.43,0.41s1-0.14,1.43-0.42
			c0.43-0.28,0.78-0.66,1.04-1.14c0.26-0.48,0.39-1.01,0.39-1.58c0-0.58-0.13-1.11-0.39-1.59c-0.26-0.48-0.61-0.86-1.04-1.14
			c-0.43-0.28-0.91-0.42-1.43-0.42s-1,0.15-1.42,0.43c-0.43,0.29-0.77,0.67-1.03,1.14S125.35,26.03,125.35,26.62z"/>
		<path class="st0" d="M140.5,30.48h-1.02v-4.36c0-0.92-0.14-1.59-0.41-2.01c-0.27-0.42-0.7-0.64-1.28-0.64
			c-0.4,0-0.8,0.1-1.19,0.29s-0.74,0.46-1.03,0.79c-0.3,0.33-0.51,0.72-0.64,1.14v4.78h-1.02v-7.82h0.93v1.78
			c0.21-0.38,0.49-0.71,0.83-1s0.73-0.51,1.16-0.67c0.43-0.16,0.88-0.24,1.34-0.24c0.43,0,0.8,0.08,1.1,0.24s0.54,0.39,0.72,0.68
			s0.31,0.65,0.39,1.06s0.12,0.88,0.12,1.39V30.48z"/>
		<path class="st0" d="M145.34,30.63c-0.64,0-1.24-0.11-1.79-0.32s-1.03-0.53-1.43-0.96l0.42-0.72c0.44,0.41,0.89,0.71,1.33,0.9
			s0.92,0.28,1.42,0.28c0.61,0,1.11-0.12,1.49-0.37s0.57-0.6,0.57-1.05c0-0.31-0.09-0.55-0.28-0.71c-0.19-0.17-0.45-0.3-0.8-0.4
			c-0.35-0.11-0.76-0.22-1.24-0.34c-0.54-0.15-1-0.31-1.36-0.47c-0.37-0.17-0.64-0.38-0.83-0.63c-0.19-0.25-0.28-0.59-0.28-1
			c0-0.51,0.13-0.93,0.38-1.27c0.26-0.33,0.61-0.59,1.06-0.76s0.95-0.26,1.5-0.26c0.6,0,1.14,0.1,1.6,0.29
			c0.46,0.19,0.84,0.46,1.13,0.8l-0.5,0.69c-0.28-0.32-0.62-0.56-1-0.72c-0.39-0.16-0.82-0.23-1.29-0.23
			c-0.32,0-0.63,0.04-0.92,0.13c-0.29,0.08-0.53,0.22-0.72,0.42c-0.19,0.2-0.28,0.46-0.28,0.8c0,0.28,0.07,0.5,0.21,0.65
			s0.35,0.28,0.63,0.39c0.28,0.1,0.63,0.22,1.04,0.34c0.59,0.16,1.11,0.32,1.55,0.49c0.44,0.16,0.78,0.38,1.02,0.64
			c0.24,0.26,0.36,0.62,0.36,1.09c0,0.73-0.28,1.3-0.83,1.71C146.97,30.43,146.24,30.63,145.34,30.63z"/>
		<path class="st0" d="M150.04,27.26v-4.6h1.03v4.41c0,0.89,0.15,1.56,0.46,2c0.31,0.44,0.76,0.66,1.36,0.66
			c0.4,0,0.79-0.09,1.17-0.26c0.38-0.17,0.71-0.42,1-0.75c0.29-0.32,0.51-0.7,0.66-1.13v-4.93h1.02v6.59c0,0.14,0.03,0.24,0.09,0.31
			c0.06,0.07,0.15,0.1,0.27,0.11v0.81c-0.12,0.01-0.22,0.02-0.29,0.02c-0.07,0-0.14,0.01-0.2,0.01c-0.2-0.02-0.38-0.1-0.52-0.24
			c-0.15-0.14-0.22-0.31-0.23-0.51l-0.03-1.05c-0.34,0.6-0.81,1.07-1.39,1.41c-0.59,0.34-1.22,0.51-1.91,0.51
			c-0.82,0-1.45-0.29-1.87-0.86C150.25,29.21,150.04,28.37,150.04,27.26z"/>
		<path class="st0" d="M159.19,19.48h1.02v9.28c0,0.39,0.07,0.65,0.21,0.77s0.31,0.18,0.51,0.18c0.18,0,0.36-0.02,0.54-0.06
			s0.34-0.08,0.47-0.12l0.18,0.83c-0.19,0.08-0.42,0.15-0.7,0.2c-0.28,0.05-0.52,0.08-0.72,0.08c-0.46,0-0.83-0.14-1.11-0.41
			s-0.41-0.65-0.41-1.12V19.48z"/>
		<path class="st0" d="M167.09,30.17c-0.08,0.03-0.21,0.08-0.38,0.17c-0.17,0.08-0.38,0.15-0.62,0.21c-0.24,0.06-0.5,0.09-0.78,0.09
			c-0.29,0-0.57-0.06-0.82-0.17c-0.26-0.11-0.46-0.28-0.61-0.51c-0.15-0.23-0.23-0.51-0.23-0.84v-5.65h-1.08v-0.81h1.08v-2.65h1.03
			v2.65h1.81v0.81h-1.81v5.36c0.02,0.28,0.12,0.49,0.31,0.64c0.19,0.14,0.4,0.21,0.64,0.21c0.28,0,0.54-0.05,0.77-0.14
			c0.23-0.09,0.37-0.16,0.42-0.2L167.09,30.17z"/>
		<path class="st0" d="M168.44,20.99v-1.51h1.02v1.51H168.44z M168.44,30.48v-7.85h1.02v7.85H168.44z"/>
		<path class="st0" d="M178.41,30.48h-1.02v-4.36c0-0.92-0.14-1.59-0.41-2.01c-0.27-0.42-0.7-0.64-1.28-0.64
			c-0.4,0-0.8,0.1-1.19,0.29s-0.74,0.46-1.03,0.79c-0.3,0.33-0.51,0.72-0.64,1.14v4.78h-1.02v-7.82h0.93v1.78
			c0.21-0.38,0.49-0.71,0.83-1s0.73-0.51,1.16-0.67c0.43-0.16,0.88-0.24,1.34-0.24c0.43,0,0.8,0.08,1.1,0.24s0.54,0.39,0.72,0.68
			s0.31,0.65,0.39,1.06s0.12,0.88,0.12,1.39V30.48z"/>
		<path class="st0" d="M183.82,30.63c-0.53,0-1.02-0.11-1.48-0.33s-0.84-0.52-1.17-0.9c-0.33-0.38-0.58-0.81-0.76-1.29
			s-0.27-0.98-0.27-1.49c0-0.55,0.09-1.07,0.26-1.56s0.43-0.92,0.75-1.3s0.71-0.68,1.15-0.9c0.44-0.22,0.93-0.32,1.48-0.32
			c0.67,0,1.26,0.17,1.76,0.5c0.5,0.34,0.92,0.76,1.26,1.26v-1.64h0.92v7.86c0,0.72-0.17,1.33-0.52,1.83s-0.81,0.87-1.4,1.12
			c-0.59,0.25-1.23,0.38-1.92,0.38c-0.89,0-1.62-0.16-2.17-0.48c-0.55-0.32-1-0.75-1.36-1.3l0.63-0.5c0.31,0.49,0.73,0.86,1.24,1.1
			s1.07,0.36,1.65,0.36c0.51,0,0.98-0.09,1.41-0.27s0.77-0.46,1.02-0.82c0.26-0.36,0.38-0.82,0.38-1.38v-1.55
			c-0.3,0.49-0.71,0.89-1.24,1.18S184.39,30.63,183.82,30.63z M184.1,29.78c0.31,0,0.61-0.06,0.9-0.17
			c0.29-0.11,0.55-0.26,0.79-0.44c0.24-0.19,0.44-0.39,0.6-0.63c0.16-0.23,0.26-0.47,0.3-0.71V25.4c-0.15-0.38-0.37-0.72-0.65-1.02
			c-0.28-0.3-0.6-0.53-0.96-0.69s-0.73-0.25-1.11-0.25c-0.44,0-0.84,0.09-1.18,0.28c-0.35,0.19-0.64,0.43-0.87,0.74
			c-0.24,0.31-0.42,0.65-0.55,1.03c-0.13,0.38-0.2,0.77-0.2,1.15c0,0.42,0.08,0.82,0.23,1.2c0.15,0.38,0.36,0.71,0.63,1.01
			c0.27,0.3,0.58,0.53,0.93,0.69C183.32,29.69,183.7,29.78,184.1,29.78z"/>
	</g>
</g>
<g>
</g>
<g>
</g>
<g>
</g>
<g>
</g>
<g>
</g>
<g>
</g>
</svg>
