<?xml version="1.0" encoding="utf-8"?>
<!-- Generator: Adobe Illustrator 24.1.2, SVG Export Plug-In . SVG Version: 6.00 Build 0)  -->
<svg version="1.1" id="Layer_1" xmlns="http://www.w3.org/2000/svg" xmlns:xlink="http://www.w3.org/1999/xlink" x="0px" y="0px"
	 viewBox="0 0 500 300" style="enable-background:new 0 0 500 300;" xml:space="preserve">
<style type="text/css">
	.st0{fill:#FFFFFF;}
</style>
<g>
	<g>
		<path class="st0" d="M98.66,100.45v89.65H92.2v-42.93H35.42v42.93h-6.46v-89.65h6.46v40.91H92.2v-40.91H98.66z"/>
	</g>
	<g>
		<path class="st0" d="M55.92,144.52c0-5.39,0.95-10.71,2.85-15.97c1.9-5.26,4.67-10.06,8.3-14.39c3.63-4.33,8.09-7.81,13.37-10.42
			c5.28-2.61,11.3-3.91,18.06-3.91c8.02,0,14.87,1.83,20.53,5.49c5.66,3.66,9.88,8.35,12.67,14.08l-5.32,3.03
			c-2.11-4.12-4.71-7.41-7.79-9.85c-3.08-2.44-6.4-4.19-9.95-5.24c-3.55-1.05-7.1-1.58-10.64-1.58c-5.66,0-10.71,1.14-15.14,3.41
			c-4.44,2.27-8.17,5.3-11.21,9.09c-3.04,3.79-5.34,8-6.91,12.63c-1.56,4.63-2.34,9.3-2.34,14.02c0,5.3,0.93,10.33,2.79,15.09
			c1.86,4.76,4.41,8.99,7.67,12.69c3.25,3.71,7.05,6.65,11.41,8.84c4.35,2.19,9.06,3.28,14.13,3.28c3.63,0,7.33-0.61,11.09-1.83
			c3.76-1.22,7.29-3.11,10.58-5.68c3.29-2.57,5.96-5.91,7.98-10.04l5.58,2.65c-1.94,4.46-4.86,8.25-8.74,11.36
			c-3.89,3.12-8.2,5.47-12.93,7.07c-4.73,1.6-9.42,2.4-14.07,2.4c-6.08,0-11.7-1.33-16.85-3.98c-5.15-2.65-9.61-6.19-13.37-10.61
			c-3.76-4.42-6.65-9.38-8.68-14.9C56.94,155.74,55.92,150.16,55.92,144.52z"/>
	</g>
</g>
<g>
	<path class="st0" d="M172.42,128.96v28.4h-2.76v-13.28h-16.84v13.28h-2.8v-28.4h2.8v12.64h16.84v-12.64H172.42z"/>
	<path class="st0" d="M177.3,151.4c0-1.3,0.37-2.42,1.12-3.36c0.75-0.94,1.78-1.67,3.1-2.19c1.32-0.52,2.85-0.77,4.58-0.77
		c1.01,0,2.07,0.08,3.16,0.24c1.09,0.16,2.07,0.4,2.92,0.72v-1.76c0-1.75-0.52-3.14-1.56-4.17s-2.48-1.55-4.32-1.55
		c-1.12,0-2.22,0.21-3.3,0.62c-1.08,0.41-2.21,1.02-3.38,1.82l-1.04-1.92c1.36-0.93,2.69-1.63,4-2.1c1.31-0.47,2.64-0.7,4-0.7
		c2.56,0,4.59,0.73,6.08,2.19s2.24,3.47,2.24,6.04v9.58c0,0.37,0.08,0.64,0.24,0.81c0.16,0.17,0.41,0.27,0.76,0.3v2.16
		c-0.29,0.03-0.55,0.05-0.76,0.08c-0.21,0.03-0.37,0.03-0.48,0c-0.67-0.03-1.17-0.24-1.52-0.64c-0.35-0.4-0.53-0.83-0.56-1.28
		l-0.04-1.52c-0.93,1.2-2.15,2.13-3.64,2.78c-1.49,0.65-3.01,0.98-4.56,0.98c-1.33,0-2.54-0.29-3.62-0.85
		c-1.08-0.57-1.92-1.34-2.52-2.31C177.6,153.63,177.3,152.56,177.3,151.4z M191.26,152.98c0.29-0.37,0.52-0.73,0.68-1.07
		c0.16-0.34,0.24-0.65,0.24-0.91v-3.01c-0.91-0.34-1.85-0.61-2.82-0.79s-1.95-0.28-2.94-0.28c-1.95,0-3.52,0.38-4.72,1.15
		c-1.2,0.77-1.8,1.81-1.8,3.13c0,0.77,0.2,1.49,0.6,2.16c0.4,0.67,0.99,1.23,1.76,1.66c0.77,0.44,1.68,0.65,2.72,0.65
		c1.31,0,2.53-0.25,3.66-0.75C189.78,154.42,190.65,153.77,191.26,152.98z"/>
	<path class="st0" d="M207.82,157.76c-1.71,0-3.29-0.28-4.76-0.84c-1.47-0.56-2.73-1.41-3.8-2.56l1.12-1.92
		c1.17,1.09,2.35,1.89,3.54,2.38c1.19,0.49,2.45,0.74,3.78,0.74c1.63,0,2.95-0.32,3.96-0.97c1.01-0.65,1.52-1.58,1.52-2.79
		c0-0.82-0.25-1.45-0.74-1.89c-0.49-0.44-1.2-0.8-2.12-1.07c-0.92-0.28-2.02-0.58-3.3-0.9c-1.44-0.4-2.65-0.82-3.62-1.25
		s-1.71-0.99-2.2-1.67s-0.74-1.56-0.74-2.65c0-1.35,0.34-2.47,1.02-3.36c0.68-0.89,1.61-1.56,2.8-2.03c1.19-0.46,2.51-0.7,3.98-0.7
		c1.6,0,3.01,0.25,4.24,0.76c1.23,0.51,2.23,1.21,3,2.12l-1.32,1.84c-0.75-0.85-1.63-1.49-2.66-1.9c-1.03-0.41-2.17-0.62-3.42-0.62
		c-0.85,0-1.67,0.11-2.44,0.34s-1.41,0.6-1.9,1.11c-0.49,0.52-0.74,1.23-0.74,2.13c0,0.74,0.19,1.32,0.56,1.73
		c0.37,0.41,0.93,0.76,1.68,1.03c0.75,0.28,1.67,0.58,2.76,0.89c1.57,0.42,2.95,0.85,4.12,1.29c1.17,0.44,2.08,1,2.72,1.69
		c0.64,0.69,0.96,1.66,0.96,2.9c0,1.94-0.73,3.45-2.2,4.53S210.22,157.76,207.82,157.76z"/>
	<path class="st0" d="M235.38,157.36l-7.72-10.66l-4.44,4.15v6.51h-2.72v-29.2h2.72v19.78l11.8-11.34h3l-8.52,8.5l8.84,12.26H235.38
		z"/>
	<path class="st0" d="M249.82,157.76c-1.49,0-2.88-0.29-4.16-0.86s-2.39-1.35-3.32-2.35s-1.66-2.15-2.18-3.45
		c-0.52-1.3-0.78-2.7-0.78-4.19c0-1.93,0.45-3.71,1.34-5.32c0.89-1.61,2.13-2.9,3.7-3.87c1.57-0.97,3.36-1.45,5.36-1.45
		c2.05,0,3.85,0.49,5.38,1.47s2.74,2.27,3.62,3.87s1.32,3.36,1.32,5.26c0,0.21,0,0.42,0,0.62s-0.01,0.35-0.04,0.46h-17.84
		c0.13,1.49,0.55,2.81,1.26,3.96c0.71,1.15,1.63,2.07,2.76,2.75c1.13,0.68,2.37,1.01,3.7,1.01c1.36,0,2.65-0.35,3.86-1.04
		c1.21-0.69,2.06-1.6,2.54-2.72l2.36,0.64c-0.43,0.99-1.08,1.88-1.96,2.68c-0.88,0.8-1.91,1.42-3.1,1.86
		C252.46,157.54,251.18,157.76,249.82,157.76z M242.14,146h15.4c-0.11-1.5-0.51-2.82-1.22-3.96c-0.71-1.13-1.63-2.03-2.76-2.67
		c-1.13-0.65-2.38-0.97-3.74-0.97c-1.36,0-2.6,0.32-3.72,0.97c-1.12,0.65-2.03,1.54-2.74,2.69
		C242.66,143.21,242.25,144.52,242.14,146z"/>
	<path class="st0" d="M264.62,128.16h2.72v24.63c0,1.05,0.19,1.73,0.56,2.05c0.37,0.32,0.83,0.48,1.36,0.48
		c0.48,0,0.96-0.05,1.44-0.16c0.48-0.11,0.89-0.21,1.24-0.32l0.48,2.2c-0.51,0.21-1.13,0.39-1.86,0.52c-0.73,0.13-1.37,0.2-1.9,0.2
		c-1.23,0-2.21-0.36-2.94-1.09s-1.1-1.72-1.1-2.98V128.16z"/>
	<path class="st0" d="M275.7,128.16h2.72v24.63c0,1.05,0.19,1.73,0.56,2.05c0.37,0.32,0.83,0.48,1.36,0.48
		c0.48,0,0.96-0.05,1.44-0.16c0.48-0.11,0.89-0.21,1.24-0.32l0.48,2.2c-0.51,0.21-1.13,0.39-1.86,0.52c-0.73,0.13-1.37,0.2-1.9,0.2
		c-1.23,0-2.21-0.36-2.94-1.09s-1.1-1.72-1.1-2.98V128.16z"/>
	<path class="st0" d="M294.54,142.92c0-1.73,0.3-3.43,0.9-5.1c0.6-1.67,1.47-3.19,2.62-4.56c1.15-1.37,2.56-2.47,4.24-3.28
		c1.68-0.81,3.59-1.22,5.72-1.22c2.53,0,4.7,0.58,6.5,1.74c1.8,1.16,3.13,2.65,3.98,4.46l-2.2,1.36c-0.61-1.25-1.39-2.25-2.32-2.98
		c-0.93-0.73-1.93-1.26-2.98-1.58c-1.05-0.32-2.1-0.48-3.14-0.48c-1.71,0-3.21,0.34-4.52,1.02c-1.31,0.68-2.41,1.59-3.3,2.72
		c-0.89,1.13-1.57,2.4-2.02,3.8c-0.45,1.4-0.68,2.82-0.68,4.26c0,1.57,0.27,3.08,0.8,4.52c0.53,1.44,1.28,2.71,2.24,3.82
		c0.96,1.11,2.09,1.99,3.38,2.64c1.29,0.65,2.7,0.98,4.22,0.98c1.07,0,2.16-0.19,3.28-0.56c1.12-0.37,2.17-0.95,3.14-1.72
		c0.97-0.77,1.75-1.77,2.34-3l2.32,1.2c-0.59,1.41-1.49,2.61-2.72,3.6c-1.23,0.99-2.59,1.73-4.1,2.24s-2.98,0.76-4.42,0.76
		c-1.95,0-3.73-0.42-5.36-1.26s-3.03-1.96-4.22-3.36c-1.19-1.4-2.1-2.97-2.74-4.72C294.86,146.47,294.54,144.7,294.54,142.92z"/>
	<path class="st0" d="M332.38,157.76c-1.49,0-2.87-0.29-4.14-0.86c-1.27-0.57-2.36-1.35-3.28-2.35s-1.63-2.13-2.14-3.42
		c-0.51-1.29-0.76-2.65-0.76-4.08c0-1.49,0.25-2.87,0.76-4.16c0.51-1.29,1.23-2.43,2.16-3.42c0.93-0.99,2.03-1.78,3.3-2.35
		c1.27-0.57,2.65-0.86,4.14-0.86c1.49,0,2.87,0.29,4.12,0.86c1.25,0.57,2.35,1.35,3.28,2.35c0.93,0.99,1.65,2.13,2.16,3.42
		c0.51,1.29,0.76,2.67,0.76,4.16c0,1.43-0.25,2.79-0.76,4.08c-0.51,1.29-1.22,2.43-2.14,3.42s-2.01,1.78-3.28,2.35
		S333.9,157.76,332.38,157.76z M324.82,147.1c0,1.54,0.34,2.93,1.02,4.19s1.59,2.25,2.74,2.98c1.15,0.73,2.41,1.09,3.8,1.09
		s2.65-0.37,3.8-1.11s2.07-1.75,2.76-3.04c0.69-1.28,1.04-2.68,1.04-4.19c0-1.54-0.35-2.94-1.04-4.21
		c-0.69-1.27-1.61-2.28-2.76-3.02c-1.15-0.74-2.41-1.11-3.8-1.11s-2.65,0.38-3.78,1.15c-1.13,0.77-2.05,1.78-2.74,3.04
		C325.17,144.12,324.82,145.53,324.82,147.1z"/>
	<path class="st0" d="M365.02,157.36h-2.72v-11.57c0-2.44-0.36-4.22-1.08-5.35c-0.72-1.13-1.85-1.69-3.4-1.69
		c-1.07,0-2.12,0.26-3.16,0.77c-1.04,0.52-1.95,1.22-2.74,2.1c-0.79,0.89-1.35,1.9-1.7,3.04v12.69h-2.72V136.6h2.48v4.73
		c0.56-1.01,1.29-1.89,2.2-2.65c0.91-0.76,1.93-1.35,3.08-1.77c1.15-0.42,2.33-0.64,3.56-0.64c1.15,0,2.12,0.21,2.92,0.64
		c0.8,0.42,1.44,1.03,1.92,1.81c0.48,0.78,0.83,1.72,1.04,2.82c0.21,1.1,0.32,2.33,0.32,3.68V157.36z"/>
	<path class="st0" d="M377.86,157.76c-1.71,0-3.29-0.28-4.76-0.84c-1.47-0.56-2.73-1.41-3.8-2.56l1.12-1.92
		c1.17,1.09,2.35,1.89,3.54,2.38c1.19,0.49,2.45,0.74,3.78,0.74c1.63,0,2.95-0.32,3.96-0.97c1.01-0.65,1.52-1.58,1.52-2.79
		c0-0.82-0.25-1.45-0.74-1.89c-0.49-0.44-1.2-0.8-2.12-1.07c-0.92-0.28-2.02-0.58-3.3-0.9c-1.44-0.4-2.65-0.82-3.62-1.25
		s-1.71-0.99-2.2-1.67s-0.74-1.56-0.74-2.65c0-1.35,0.34-2.47,1.02-3.36c0.68-0.89,1.61-1.56,2.8-2.03c1.19-0.46,2.51-0.7,3.98-0.7
		c1.6,0,3.01,0.25,4.24,0.76c1.23,0.51,2.23,1.21,3,2.12l-1.32,1.84c-0.75-0.85-1.63-1.49-2.66-1.9c-1.03-0.41-2.17-0.62-3.42-0.62
		c-0.85,0-1.67,0.11-2.44,0.34s-1.41,0.6-1.9,1.11c-0.49,0.52-0.74,1.23-0.74,2.13c0,0.74,0.19,1.32,0.56,1.73
		c0.37,0.41,0.93,0.76,1.68,1.03c0.75,0.28,1.67,0.58,2.76,0.89c1.57,0.42,2.95,0.85,4.12,1.29c1.17,0.44,2.08,1,2.72,1.69
		c0.64,0.69,0.96,1.66,0.96,2.9c0,1.94-0.73,3.45-2.2,4.53S380.26,157.76,377.86,157.76z"/>
	<path class="st0" d="M390.34,148.79V136.6h2.72v11.71c0,2.36,0.41,4.13,1.22,5.3c0.81,1.17,2.02,1.75,3.62,1.75
		c1.07,0,2.1-0.23,3.1-0.7c1-0.46,1.89-1.13,2.66-1.99c0.77-0.86,1.36-1.86,1.76-3V136.6h2.72v17.49c0,0.37,0.08,0.64,0.24,0.82
		c0.16,0.17,0.4,0.27,0.72,0.3v2.16c-0.32,0.03-0.57,0.05-0.76,0.06c-0.19,0.01-0.36,0.02-0.52,0.02c-0.53-0.05-0.99-0.27-1.38-0.64
		c-0.39-0.37-0.59-0.82-0.62-1.35l-0.08-2.79c-0.91,1.59-2.14,2.84-3.7,3.75c-1.56,0.9-3.25,1.36-5.06,1.36
		c-2.19,0-3.84-0.76-4.96-2.27C390.9,153.97,390.34,151.74,390.34,148.79z"/>
	<path class="st0" d="M414.62,128.16h2.72v24.63c0,1.05,0.19,1.73,0.56,2.05c0.37,0.32,0.83,0.48,1.36,0.48
		c0.48,0,0.96-0.05,1.44-0.16c0.48-0.11,0.89-0.21,1.24-0.32l0.48,2.2c-0.51,0.21-1.13,0.39-1.86,0.52c-0.73,0.13-1.37,0.2-1.9,0.2
		c-1.23,0-2.21-0.36-2.94-1.09s-1.1-1.72-1.1-2.98V128.16z"/>
	<path class="st0" d="M435.58,156.52c-0.21,0.08-0.55,0.23-1,0.44c-0.45,0.21-1,0.4-1.64,0.56c-0.64,0.16-1.33,0.24-2.08,0.24
		c-0.77,0-1.5-0.15-2.18-0.44c-0.68-0.29-1.22-0.74-1.62-1.35c-0.4-0.6-0.6-1.34-0.6-2.23v-14.98h-2.88v-2.16h2.88v-7.04h2.72v7.04
		h4.8v2.16h-4.8v14.23c0.05,0.75,0.33,1.31,0.82,1.69c0.49,0.38,1.06,0.56,1.7,0.56c0.75,0,1.43-0.13,2.04-0.38
		c0.61-0.25,0.99-0.43,1.12-0.54L435.58,156.52z"/>
	<path class="st0" d="M439.18,132.16v-4h2.72v4H439.18z M439.18,157.36v-20.84h2.72v20.84H439.18z"/>
	<path class="st0" d="M465.62,157.36h-2.72v-11.57c0-2.44-0.36-4.22-1.08-5.35c-0.72-1.13-1.85-1.69-3.4-1.69
		c-1.07,0-2.12,0.26-3.16,0.77c-1.04,0.52-1.95,1.22-2.74,2.1c-0.79,0.89-1.35,1.9-1.7,3.04v12.69h-2.72V136.6h2.48v4.73
		c0.56-1.01,1.29-1.89,2.2-2.65c0.91-0.76,1.93-1.35,3.08-1.77c1.15-0.42,2.33-0.64,3.56-0.64c1.15,0,2.12,0.21,2.92,0.64
		c0.8,0.42,1.44,1.03,1.92,1.81c0.48,0.78,0.83,1.72,1.04,2.82c0.21,1.1,0.32,2.33,0.32,3.68V157.36z"/>
	<path class="st0" d="M479.98,157.76c-1.41,0-2.72-0.29-3.92-0.88c-1.2-0.59-2.23-1.38-3.1-2.38c-0.87-1-1.54-2.14-2.02-3.42
		c-0.48-1.28-0.72-2.6-0.72-3.96c0-1.47,0.23-2.85,0.7-4.14s1.13-2.45,2-3.46c0.87-1.01,1.89-1.81,3.06-2.38
		c1.17-0.57,2.48-0.86,3.92-0.86c1.79,0,3.34,0.45,4.66,1.34c1.32,0.89,2.43,2.01,3.34,3.34v-4.36h2.44v20.86
		c0,1.92-0.46,3.53-1.38,4.85s-2.16,2.31-3.72,2.97c-1.56,0.66-3.26,1-5.1,1c-2.37,0-4.29-0.43-5.76-1.28
		c-1.47-0.85-2.67-2-3.6-3.44l1.68-1.32c0.83,1.31,1.93,2.28,3.3,2.92c1.37,0.64,2.83,0.96,4.38,0.96c1.36,0,2.61-0.24,3.74-0.73
		c1.13-0.48,2.04-1.21,2.72-2.18c0.68-0.97,1.02-2.19,1.02-3.66v-4.12c-0.8,1.31-1.89,2.35-3.28,3.14
		C482.95,157.36,481.5,157.76,479.98,157.76z M480.74,155.48c0.83,0,1.62-0.15,2.38-0.44c0.76-0.29,1.46-0.69,2.1-1.18
		c0.64-0.49,1.17-1.05,1.6-1.66c0.43-0.61,0.69-1.24,0.8-1.88v-6.44c-0.4-1.01-0.97-1.91-1.72-2.7c-0.75-0.79-1.59-1.4-2.54-1.84
		c-0.95-0.44-1.93-0.66-2.94-0.66c-1.17,0-2.22,0.25-3.14,0.74c-0.92,0.49-1.69,1.15-2.32,1.96c-0.63,0.81-1.11,1.73-1.46,2.74
		c-0.35,1.01-0.52,2.03-0.52,3.04c0,1.12,0.2,2.18,0.6,3.18c0.4,1,0.95,1.89,1.66,2.68c0.71,0.79,1.53,1.39,2.48,1.82
		S479.67,155.48,480.74,155.48z"/>
</g>
<g>
</g>
<g>
</g>
<g>
</g>
<g>
</g>
<g>
</g>
<g>
</g>
</svg>
