<?xml version="1.0" encoding="utf-8"?>
<!-- Generator: Adobe Illustrator 24.1.2, SVG Export Plug-In . SVG Version: 6.00 Build 0)  -->
<svg version="1.1" id="Layer_1" xmlns="http://www.w3.org/2000/svg" xmlns:xlink="http://www.w3.org/1999/xlink" x="0px" y="0px"
	 viewBox="0 0 200 50" style="enable-background:new 0 0 200 50;" xml:space="preserve">
<style type="text/css">
	.st0{fill:#FFFFFF;}
</style>
<g>
	<g>
		<g>
			<path class="st0" d="M26.06,11.26v28.67h-2.07V26.2H5.84v13.73H3.77V11.26h2.07v13.08h18.16V11.26H26.06z"/>
		</g>
		<g>
			<path class="st0" d="M12.39,25.35c0-1.72,0.3-3.43,0.91-5.11c0.61-1.68,1.49-3.22,2.65-4.6c1.16-1.39,2.59-2.5,4.28-3.33
				c1.69-0.83,3.61-1.25,5.78-1.25c2.57,0,4.75,0.59,6.57,1.76c1.81,1.17,3.16,2.67,4.05,4.5l-1.7,0.97
				c-0.68-1.32-1.51-2.37-2.49-3.15c-0.99-0.78-2.05-1.34-3.18-1.68c-1.13-0.34-2.27-0.5-3.4-0.5c-1.81,0-3.42,0.36-4.84,1.09
				c-1.42,0.73-2.61,1.7-3.59,2.91s-1.71,2.56-2.21,4.04c-0.5,1.48-0.75,2.98-0.75,4.48c0,1.7,0.3,3.3,0.89,4.83
				c0.59,1.52,1.41,2.87,2.45,4.06s2.26,2.13,3.65,2.83c1.39,0.7,2.9,1.05,4.52,1.05c1.16,0,2.34-0.19,3.55-0.58
				c1.2-0.39,2.33-1,3.38-1.82s1.9-1.89,2.55-3.21l1.78,0.85c-0.62,1.43-1.55,2.64-2.8,3.63c-1.24,1-2.62,1.75-4.13,2.26
				c-1.51,0.51-3.01,0.77-4.5,0.77c-1.95,0-3.74-0.42-5.39-1.27c-1.65-0.85-3.07-1.98-4.28-3.39s-2.13-3-2.78-4.76
				S12.39,27.15,12.39,25.35z"/>
		</g>
	</g>
	<g>
		<path class="st0" d="M57.41,20.02v12.07h-1.53V26.6h-6.65v5.49H47.7V20.02h1.53v5.22h6.65v-5.22H57.41z"/>
		<path class="st0" d="M59.36,29.54c0-0.56,0.16-1.05,0.48-1.46c0.32-0.41,0.77-0.73,1.33-0.95c0.57-0.23,1.22-0.34,1.97-0.34
			c0.4,0,0.82,0.03,1.26,0.09c0.44,0.06,0.83,0.16,1.17,0.28v-0.64c0-0.67-0.2-1.2-0.61-1.58s-0.99-0.58-1.73-0.58
			c-0.49,0-0.96,0.09-1.4,0.26s-0.92,0.43-1.42,0.76l-0.54-1.05c0.58-0.4,1.16-0.69,1.73-0.89s1.18-0.3,1.8-0.3
			c1.13,0,2.03,0.31,2.69,0.94s0.99,1.49,0.99,2.6v3.72c0,0.18,0.04,0.31,0.11,0.4c0.07,0.08,0.2,0.13,0.37,0.14v1.16
			c-0.15,0.02-0.28,0.04-0.38,0.05c-0.11,0.01-0.2,0.02-0.26,0.02c-0.35,0-0.61-0.1-0.79-0.29c-0.18-0.19-0.28-0.4-0.3-0.61
			l-0.03-0.56c-0.38,0.5-0.89,0.88-1.51,1.16c-0.62,0.27-1.24,0.41-1.85,0.41c-0.59,0-1.12-0.12-1.58-0.36
			c-0.46-0.24-0.83-0.57-1.09-0.98C59.49,30.51,59.36,30.05,59.36,29.54z M65.14,30.16c0.14-0.16,0.24-0.32,0.32-0.48
			c0.08-0.16,0.12-0.3,0.12-0.41v-1.09c-0.35-0.13-0.72-0.24-1.11-0.31c-0.39-0.07-0.76-0.11-1.14-0.11c-0.76,0-1.38,0.15-1.84,0.45
			c-0.47,0.3-0.71,0.7-0.71,1.22c0,0.28,0.08,0.55,0.23,0.82c0.15,0.26,0.38,0.48,0.68,0.65c0.3,0.17,0.67,0.25,1.11,0.25
			c0.46,0,0.91-0.09,1.33-0.28C64.56,30.67,64.89,30.44,65.14,30.16z"/>
		<path class="st0" d="M72.61,32.26c-0.74,0-1.43-0.12-2.07-0.37c-0.65-0.24-1.2-0.61-1.67-1.1l0.58-1.05
			c0.51,0.48,1.02,0.82,1.53,1.02s1.03,0.31,1.56,0.31c0.61,0,1.11-0.12,1.5-0.34c0.39-0.23,0.58-0.57,0.58-1.01
			c0-0.33-0.1-0.57-0.3-0.73c-0.2-0.16-0.48-0.29-0.84-0.4c-0.36-0.11-0.79-0.23-1.29-0.36c-0.61-0.18-1.13-0.37-1.55-0.57
			c-0.42-0.2-0.74-0.46-0.95-0.76c-0.22-0.3-0.32-0.69-0.32-1.15c0-0.56,0.15-1.04,0.44-1.43c0.29-0.39,0.7-0.68,1.21-0.89
			s1.1-0.3,1.76-0.3s1.25,0.1,1.79,0.31c0.53,0.2,0.99,0.5,1.38,0.9l-0.68,1.04c-0.35-0.36-0.74-0.63-1.16-0.81
			c-0.42-0.18-0.89-0.26-1.41-0.26c-0.31,0-0.61,0.04-0.9,0.11c-0.29,0.07-0.54,0.2-0.73,0.39c-0.19,0.19-0.29,0.45-0.29,0.78
			c0,0.28,0.08,0.5,0.23,0.67s0.38,0.3,0.68,0.41c0.3,0.11,0.67,0.24,1.1,0.37c0.67,0.19,1.25,0.38,1.74,0.57
			c0.49,0.19,0.88,0.44,1.15,0.74c0.27,0.3,0.41,0.72,0.41,1.26c0,0.83-0.32,1.48-0.95,1.95S73.65,32.26,72.61,32.26z"/>
		<path class="st0" d="M84.2,32.09l-3.08-4.3l-1.68,1.58v2.73h-1.5V19.68h1.5v8.13l4.59-4.54h1.62l-3.54,3.66l3.71,5.17H84.2z"/>
		<path class="st0" d="M90.66,32.26c-0.67,0-1.28-0.12-1.83-0.36c-0.55-0.24-1.03-0.57-1.43-1c-0.4-0.42-0.71-0.91-0.94-1.46
			c-0.22-0.55-0.33-1.14-0.33-1.75c0-0.83,0.19-1.59,0.58-2.28c0.38-0.69,0.92-1.24,1.61-1.65c0.69-0.42,1.47-0.62,2.35-0.62
			c0.89,0,1.67,0.21,2.34,0.63c0.66,0.42,1.18,0.97,1.55,1.66s0.55,1.42,0.55,2.2c0,0.11,0,0.22-0.01,0.33
			c-0.01,0.11-0.01,0.19-0.03,0.25h-7.36c0.04,0.57,0.21,1.08,0.48,1.52c0.28,0.44,0.64,0.79,1.08,1.04
			c0.44,0.25,0.92,0.38,1.43,0.38c0.54,0,1.06-0.14,1.54-0.41c0.48-0.27,0.81-0.63,0.99-1.07l1.29,0.36
			c-0.19,0.43-0.48,0.82-0.86,1.16s-0.83,0.61-1.34,0.8S91.26,32.26,90.66,32.26z M87.67,27.16h6.05c-0.05-0.57-0.21-1.08-0.49-1.51
			c-0.28-0.44-0.65-0.78-1.09-1.02c-0.44-0.25-0.93-0.37-1.46-0.37c-0.52,0-1,0.12-1.45,0.37c-0.44,0.25-0.8,0.59-1.08,1.02
			C87.87,26.08,87.71,26.59,87.67,27.16z"/>
		<path class="st0" d="M96.9,19.68h1.5v10.16c0,0.49,0.07,0.79,0.2,0.91c0.14,0.11,0.3,0.17,0.49,0.17c0.24,0,0.46-0.03,0.68-0.08
			c0.21-0.05,0.4-0.11,0.54-0.16l0.24,1.22c-0.25,0.1-0.54,0.19-0.88,0.25c-0.34,0.07-0.64,0.1-0.9,0.1c-0.58,0-1.04-0.17-1.37-0.5
			c-0.33-0.33-0.5-0.79-0.5-1.38V19.68z"/>
		<path class="st0" d="M101.85,19.68h1.5v10.16c0,0.49,0.07,0.79,0.2,0.91c0.14,0.11,0.3,0.17,0.49,0.17c0.24,0,0.46-0.03,0.68-0.08
			c0.21-0.05,0.4-0.11,0.54-0.16l0.24,1.22c-0.25,0.1-0.54,0.19-0.88,0.25c-0.34,0.07-0.64,0.1-0.9,0.1c-0.58,0-1.04-0.17-1.37-0.5
			c-0.33-0.33-0.5-0.79-0.5-1.38V19.68z"/>
		<path class="st0" d="M110.09,25.95c0-0.74,0.13-1.46,0.38-2.17c0.25-0.71,0.63-1.35,1.12-1.94c0.49-0.58,1.1-1.05,1.81-1.39
			c0.71-0.35,1.52-0.52,2.43-0.52c1.08,0,2,0.25,2.77,0.74c0.77,0.49,1.34,1.12,1.72,1.9l-1.21,0.78c-0.24-0.51-0.54-0.92-0.91-1.21
			c-0.37-0.3-0.76-0.51-1.19-0.64c-0.43-0.13-0.84-0.19-1.25-0.19c-0.67,0-1.26,0.14-1.78,0.41c-0.52,0.27-0.95,0.63-1.3,1.09
			c-0.35,0.45-0.61,0.96-0.79,1.52c-0.18,0.56-0.26,1.13-0.26,1.69c0,0.62,0.1,1.22,0.31,1.8c0.21,0.58,0.5,1.09,0.88,1.53
			c0.37,0.44,0.82,0.79,1.33,1.05c0.51,0.26,1.07,0.39,1.67,0.39c0.42,0,0.85-0.07,1.29-0.22c0.44-0.15,0.86-0.38,1.24-0.69
			c0.39-0.31,0.69-0.72,0.92-1.22l1.28,0.7c-0.25,0.6-0.63,1.11-1.16,1.53c-0.52,0.42-1.1,0.74-1.74,0.95
			c-0.64,0.22-1.27,0.32-1.9,0.32c-0.83,0-1.59-0.18-2.28-0.54c-0.69-0.36-1.29-0.83-1.79-1.43c-0.5-0.59-0.9-1.26-1.17-2.01
			C110.23,27.46,110.09,26.71,110.09,25.95z"/>
		<path class="st0" d="M126.19,32.26c-0.67,0-1.28-0.12-1.82-0.36c-0.54-0.24-1.01-0.57-1.41-1c-0.4-0.42-0.7-0.91-0.92-1.46
			c-0.21-0.55-0.32-1.13-0.32-1.74c0-0.62,0.11-1.2,0.32-1.75c0.22-0.55,0.52-1.04,0.92-1.46c0.4-0.42,0.87-0.75,1.42-1
			c0.55-0.24,1.16-0.36,1.83-0.36c0.66,0,1.26,0.12,1.8,0.36c0.54,0.24,1.02,0.57,1.42,1s0.71,0.91,0.93,1.46
			c0.21,0.55,0.32,1.14,0.32,1.75c0,0.61-0.11,1.19-0.32,1.74c-0.22,0.55-0.52,1.04-0.92,1.46s-0.87,0.75-1.42,1
			C127.47,32.14,126.86,32.26,126.19,32.26z M123.25,27.72c0,0.61,0.13,1.16,0.4,1.65c0.27,0.49,0.62,0.88,1.06,1.17
			c0.44,0.29,0.94,0.43,1.48,0.43s1.04-0.15,1.49-0.44c0.45-0.29,0.8-0.69,1.07-1.19c0.27-0.5,0.4-1.05,0.4-1.66
			c0-0.61-0.13-1.16-0.4-1.65c-0.27-0.49-0.62-0.89-1.07-1.18c-0.45-0.29-0.94-0.44-1.49-0.44s-1.04,0.15-1.48,0.45
			c-0.44,0.3-0.8,0.69-1.06,1.19C123.38,26.55,123.25,27.1,123.25,27.72z"/>
		<path class="st0" d="M140.28,32.09h-1.5v-4.92c0-0.93-0.14-1.62-0.43-2.05c-0.29-0.43-0.73-0.65-1.32-0.65
			c-0.41,0-0.81,0.1-1.22,0.3s-0.76,0.47-1.07,0.81c-0.31,0.34-0.54,0.74-0.67,1.18v5.31h-1.5v-8.82h1.36v1.91
			c0.24-0.42,0.54-0.78,0.92-1.08s0.8-0.54,1.27-0.71c0.48-0.17,0.97-0.25,1.5-0.25c0.51,0,0.94,0.09,1.28,0.28s0.62,0.44,0.82,0.78
			s0.34,0.72,0.42,1.17c0.08,0.45,0.13,0.94,0.13,1.47V32.09z"/>
		<path class="st0" d="M145.74,32.26c-0.74,0-1.43-0.12-2.07-0.37c-0.65-0.24-1.2-0.61-1.67-1.1l0.58-1.05
			c0.51,0.48,1.02,0.82,1.53,1.02s1.03,0.31,1.56,0.31c0.61,0,1.11-0.12,1.5-0.34c0.39-0.23,0.58-0.57,0.58-1.01
			c0-0.33-0.1-0.57-0.3-0.73c-0.2-0.16-0.48-0.29-0.84-0.4c-0.36-0.11-0.79-0.23-1.29-0.36c-0.61-0.18-1.13-0.37-1.55-0.57
			c-0.42-0.2-0.74-0.46-0.95-0.76c-0.22-0.3-0.32-0.69-0.32-1.15c0-0.56,0.15-1.04,0.44-1.43c0.29-0.39,0.7-0.68,1.21-0.89
			s1.1-0.3,1.76-0.3s1.25,0.1,1.79,0.31c0.53,0.2,0.99,0.5,1.38,0.9l-0.68,1.04c-0.35-0.36-0.74-0.63-1.16-0.81
			c-0.42-0.18-0.89-0.26-1.41-0.26c-0.31,0-0.61,0.04-0.9,0.11c-0.29,0.07-0.54,0.2-0.73,0.39c-0.19,0.19-0.29,0.45-0.29,0.78
			c0,0.28,0.08,0.5,0.23,0.67s0.38,0.3,0.68,0.41c0.3,0.11,0.67,0.24,1.1,0.37c0.67,0.19,1.25,0.38,1.74,0.57
			c0.49,0.19,0.88,0.44,1.15,0.74c0.27,0.3,0.41,0.72,0.41,1.26c0,0.83-0.32,1.48-0.95,1.95S146.78,32.26,145.74,32.26z"/>
		<path class="st0" d="M150.99,28.56v-5.29h1.5v5c0,0.9,0.16,1.58,0.48,2.03c0.32,0.45,0.79,0.68,1.41,0.68
			c0.41,0,0.8-0.09,1.18-0.26s0.72-0.42,1.03-0.75c0.31-0.33,0.54-0.71,0.71-1.16v-5.53h1.5v7.13c0,0.18,0.04,0.31,0.11,0.4
			c0.07,0.08,0.2,0.13,0.37,0.14v1.16c-0.17,0.02-0.3,0.04-0.4,0.04c-0.1,0-0.19,0.01-0.28,0.01c-0.28,0-0.53-0.09-0.73-0.26
			s-0.31-0.39-0.32-0.65l-0.03-1.03c-0.38,0.65-0.9,1.16-1.56,1.52c-0.65,0.36-1.36,0.54-2.13,0.54c-0.93,0-1.63-0.31-2.11-0.94
			C151.23,30.7,150.99,29.78,150.99,28.56z"/>
		<path class="st0" d="M161.41,19.68h1.5v10.16c0,0.49,0.07,0.79,0.2,0.91c0.14,0.11,0.3,0.17,0.49,0.17c0.24,0,0.46-0.03,0.68-0.08
			c0.21-0.05,0.4-0.11,0.54-0.16l0.24,1.22c-0.25,0.1-0.54,0.19-0.88,0.25c-0.34,0.07-0.64,0.1-0.9,0.1c-0.58,0-1.04-0.17-1.37-0.5
			c-0.33-0.33-0.5-0.79-0.5-1.38V19.68z"/>
		<path class="st0" d="M170.92,31.7c-0.13,0.06-0.29,0.13-0.51,0.22c-0.22,0.09-0.46,0.17-0.75,0.24c-0.28,0.07-0.58,0.1-0.9,0.1
			c-0.36,0-0.7-0.07-1-0.2c-0.31-0.13-0.55-0.33-0.73-0.61c-0.18-0.28-0.27-0.63-0.27-1.04v-5.97h-1.21v-1.17h1.21v-2.96h1.5v2.96
			h1.99v1.17h-1.99v5.51c0.02,0.32,0.13,0.55,0.32,0.71c0.19,0.15,0.42,0.23,0.68,0.23c0.29,0,0.57-0.05,0.82-0.15
			c0.25-0.1,0.41-0.17,0.49-0.22L170.92,31.7z"/>
		<path class="st0" d="M172.4,21.55v-1.87h1.5v1.87H172.4z M172.4,32.09v-8.87h1.5v8.87H172.4z"/>
		<path class="st0" d="M184.09,32.09h-1.5v-4.92c0-0.93-0.14-1.62-0.43-2.05c-0.29-0.43-0.73-0.65-1.32-0.65
			c-0.41,0-0.81,0.1-1.22,0.3s-0.76,0.47-1.07,0.81c-0.31,0.34-0.54,0.74-0.67,1.18v5.31h-1.5v-8.82h1.36v1.91
			c0.24-0.42,0.54-0.78,0.92-1.08s0.8-0.54,1.27-0.71c0.48-0.17,0.97-0.25,1.5-0.25c0.51,0,0.94,0.09,1.28,0.28s0.62,0.44,0.82,0.78
			s0.34,0.72,0.42,1.17c0.08,0.45,0.13,0.94,0.13,1.47V32.09z"/>
		<path class="st0" d="M190.04,32.26c-0.6,0-1.15-0.12-1.66-0.37c-0.5-0.24-0.94-0.58-1.3-1c-0.36-0.42-0.64-0.91-0.84-1.45
			s-0.3-1.11-0.3-1.7c0-0.62,0.1-1.21,0.3-1.77c0.2-0.55,0.48-1.04,0.85-1.47c0.37-0.42,0.8-0.76,1.3-1
			c0.5-0.24,1.05-0.37,1.67-0.37c0.74,0,1.38,0.18,1.93,0.54c0.55,0.36,1.01,0.81,1.39,1.37v-1.77h1.33V32c0,0.83-0.2,1.54-0.6,2.12
			c-0.4,0.58-0.95,1.01-1.63,1.31c-0.69,0.3-1.45,0.45-2.29,0.45c-1,0-1.81-0.18-2.45-0.53s-1.16-0.83-1.58-1.43l0.87-0.76
			c0.35,0.52,0.81,0.91,1.37,1.17c0.56,0.26,1.16,0.39,1.79,0.39c0.54,0,1.05-0.1,1.5-0.29c0.46-0.19,0.83-0.49,1.1-0.89
			c0.28-0.4,0.42-0.89,0.42-1.49v-1.56c-0.33,0.54-0.78,0.97-1.35,1.29C191.28,32.1,190.68,32.26,190.04,32.26z M190.5,31.04
			c0.32,0,0.62-0.06,0.92-0.17s0.57-0.26,0.82-0.45c0.25-0.19,0.46-0.4,0.63-0.64c0.17-0.24,0.28-0.48,0.34-0.73V26.5
			c-0.16-0.41-0.39-0.77-0.68-1.08c-0.29-0.31-0.63-0.55-1-0.73s-0.76-0.26-1.16-0.26c-0.45,0-0.86,0.1-1.22,0.29
			c-0.36,0.19-0.66,0.45-0.91,0.77c-0.25,0.32-0.44,0.68-0.58,1.08c-0.14,0.4-0.2,0.8-0.2,1.21c0,0.44,0.08,0.86,0.24,1.25
			c0.16,0.39,0.37,0.74,0.65,1.04c0.27,0.31,0.59,0.54,0.97,0.71S190.08,31.04,190.5,31.04z"/>
	</g>
</g>
<g>
</g>
<g>
</g>
<g>
</g>
<g>
</g>
<g>
</g>
<g>
</g>
</svg>
