<?xml version="1.0" encoding="utf-8"?>
<!-- Generator: Adobe Illustrator 24.1.2, SVG Export Plug-In . SVG Version: 6.00 Build 0)  -->
<svg version="1.1" id="Layer_1" xmlns="http://www.w3.org/2000/svg" xmlns:xlink="http://www.w3.org/1999/xlink" x="0px" y="0px"
	 viewBox="0 0 50 50" style="enable-background:new 0 0 50 50;" xml:space="preserve">
<style type="text/css">
	.st0{fill:#FFFFFF;}
</style>
<g>
	<g>
		<path class="st0" d="M32.36,6.68v35.6h-2.57V25.23H7.25v17.05H4.68V6.68h2.57v16.25h22.54V6.68H32.36z"/>
	</g>
	<g>
		<path class="st0" d="M15.39,24.18c0-2.14,0.38-4.25,1.13-6.34s1.85-3.99,3.3-5.72c1.44-1.72,3.21-3.1,5.31-4.14
			c2.1-1.04,4.49-1.55,7.17-1.55c3.19,0,5.9,0.73,8.15,2.18c2.25,1.45,3.92,3.32,5.03,5.59l-2.11,1.2
			c-0.84-1.64-1.87-2.94-3.09-3.91c-1.22-0.97-2.54-1.66-3.95-2.08C34.91,9,33.5,8.79,32.09,8.79c-2.25,0-4.25,0.45-6.01,1.35
			c-1.76,0.9-3.25,2.11-4.45,3.61c-1.21,1.5-2.12,3.18-2.74,5.01c-0.62,1.84-0.93,3.69-0.93,5.57c0,2.11,0.37,4.1,1.11,5.99
			c0.74,1.89,1.75,3.57,3.04,5.04c1.29,1.47,2.8,2.64,4.53,3.51c1.73,0.87,3.6,1.3,5.61,1.3c1.44,0,2.91-0.24,4.4-0.73
			c1.49-0.48,2.89-1.24,4.2-2.26s2.37-2.35,3.17-3.99l2.21,1.05c-0.77,1.77-1.93,3.28-3.47,4.51c-1.54,1.24-3.25,2.17-5.13,2.81
			c-1.88,0.64-3.74,0.95-5.59,0.95c-2.42,0-4.65-0.53-6.69-1.58c-2.05-1.05-3.82-2.46-5.31-4.21c-1.49-1.75-2.64-3.73-3.45-5.92
			C15.79,28.64,15.39,26.42,15.39,24.18z"/>
	</g>
</g>
<g>
</g>
<g>
</g>
<g>
</g>
<g>
</g>
<g>
</g>
<g>
</g>
</svg>
