<?xml version="1.0" encoding="utf-8"?>
<!-- Generator: Adobe Illustrator 24.1.2, SVG Export Plug-In . SVG Version: 6.00 Build 0)  -->
<svg version="1.1" id="Layer_1" xmlns="http://www.w3.org/2000/svg" xmlns:xlink="http://www.w3.org/1999/xlink" x="0px" y="0px"
	 viewBox="0 0 500 500" style="enable-background:new 0 0 500 500;" xml:space="preserve">
<style type="text/css">
	.st0{fill:#FFFFFF;}
</style>
<g>
	<path class="st0" d="M335.99,38.17v375.79H308.9V234H70.92v179.95H43.83V38.17h27.09v171.49H308.9V38.17H335.99z"/>
</g>
<g>
	<path class="st0" d="M156.85,222.88c0-22.58,3.98-44.9,11.95-66.95c7.97-22.05,19.56-42.16,34.79-60.34
		c15.22-18.17,33.91-32.72,56.04-43.67c22.13-10.93,47.36-16.41,75.7-16.41c33.64,0,62.33,7.67,86.05,23.02
		c23.72,15.35,41.43,35.02,53.12,59.01l-22.31,12.7c-8.86-17.28-19.75-31.05-32.67-41.28c-12.93-10.23-26.82-17.55-41.7-21.96
		c-14.87-4.41-29.75-6.62-44.62-6.62c-23.73,0-44.88,4.76-63.48,14.29c-18.59,9.53-34.26,22.23-47.01,38.11
		c-12.75,15.88-22.4,33.53-28.95,52.93c-6.56,19.41-9.83,38.99-9.83,58.75c0,22.23,3.89,43.32,11.69,63.25
		c7.79,19.94,18.5,37.67,32.14,53.19c13.63,15.53,29.56,27.88,47.81,37.05c18.24,9.18,37.98,13.76,59.23,13.76
		c15.22,0,30.72-2.56,46.48-7.67c15.75-5.11,30.54-13.05,44.36-23.82c13.81-10.76,24.97-24.79,33.47-42.08l23.37,11.11
		c-8.15,18.71-20.37,34.58-36.65,47.63c-16.29,13.06-34.35,22.94-54.18,29.64c-19.84,6.71-39.49,10.06-58.96,10.06
		c-25.5,0-49.05-5.56-70.65-16.67c-21.61-11.12-40.29-25.93-56.04-44.46c-15.76-18.52-27.89-39.34-36.39-62.45
		C161.1,269.91,156.85,246.53,156.85,222.88z"/>
</g>
<g>
</g>
<g>
</g>
<g>
</g>
<g>
</g>
<g>
</g>
<g>
</g>
</svg>
